<svg width="91" height="106" viewBox="0 0 91 106" fill="none" xmlns="http://www.w3.org/2000/svg">
<g filter="url(#filter0_f_404_3)">
<path d="M27.3079 101.504C28.5756 102.012 28.0841 101.072 27.3079 100.162C23.0952 95.2211 22.8222 84.337 29.178 73.6302C39.777 55.7756 41.001 53.7403 41.001 53.7403C41.001 53.7403 36.0396 60.7199 45.3386 70.3152C54.2885 79.55 69.0883 90.3348 61.1909 100.01C60.4497 100.918 61.7566 101.99 63.016 101.504C72.7918 97.736 85.1312 86.5998 86.3683 71.5583C86.8244 66.9621 88.1392 63.9323 84.7186 55.8121C80.3203 45.5206 71.5396 40.8911 68.4112 38.8288C67.4754 38.2119 66.02 38.7587 66.0968 39.6938C67.0084 50.7983 61.4644 53.6162 58.3088 47.2656C57.0486 44.7291 56.3136 40.3419 56.3136 34.9991C56.3136 26.1043 52.8889 16.948 45.3386 9.50747C43.3752 7.57255 41.0778 5.76452 38.4419 4.22269C37.4877 3.66438 36.1044 4.22557 36.1918 5.1335C36.7716 11.1634 36.2463 28.4446 16.1262 49.0903C-2.11674 68.2414 4.95236 82.9494 7.46077 86.933C12.2566 94.5645 20.7749 98.8867 27.3079 101.504Z" fill="url(#paint0_linear_404_3)"/>
</g>
<path d="M27.3079 101.504C28.5756 102.012 28.0841 101.072 27.3079 100.162C23.0952 95.2211 22.8222 84.337 29.178 73.6302C34.8946 64 41.5 58.5 41.5 58.5C41.5 58.5 36.0396 60.7199 45.3386 70.3152C54.2885 79.55 69.0883 90.3348 61.1909 100.01C60.4497 100.918 61.7566 101.99 63.016 101.504C72.7918 97.736 85.1312 86.5998 86.3683 71.5583C86.8244 66.9621 88.1392 63.9323 84.7186 55.8121C80.3203 45.5206 71.5396 40.8911 68.4112 38.8288C67.4754 38.2119 66.02 38.7587 66.0968 39.6938C67.0084 50.7983 61.4644 53.6162 58.3088 47.2656C57.0486 44.7291 56.3136 40.3419 56.3136 34.9991C56.3136 26.1043 52.8889 16.948 45.3386 9.50747C43.3752 7.57255 41.0778 5.76452 38.4419 4.22269C37.4877 3.66438 36.1044 4.22557 36.1918 5.1335C36.7716 11.1634 36.2463 28.4446 16.1262 49.0903C-2.11673 68.2414 4.95236 82.9494 7.46077 86.933C12.2566 94.5645 20.7749 98.8867 27.3079 101.504Z" fill="url(#paint1_linear_404_3)"/>
<defs>
<filter id="filter0_f_404_3" x="0" y="0" width="91" height="105.647" filterUnits="userSpaceOnUse" color-interpolation-filters="sRGB">
<feFlood flood-opacity="0" result="BackgroundImageFix"/>
<feBlend mode="normal" in="SourceGraphic" in2="BackgroundImageFix" result="shape"/>
<feGaussianBlur stdDeviation="2" result="effect1_foregroundBlur_404_3"/>
</filter>
<linearGradient id="paint0_linear_404_3" x1="-25.8127" y1="-3.02883" x2="81.9403" y2="132.456" gradientUnits="userSpaceOnUse">
<stop stop-color="#FF5700"/>
<stop offset="0.94913" stop-color="#FF9C27"/>
</linearGradient>
<linearGradient id="paint1_linear_404_3" x1="-25.8127" y1="-3.02883" x2="81.9404" y2="132.456" gradientUnits="userSpaceOnUse">
<stop stop-color="#FC5600"/>
<stop offset="0.94913" stop-color="#FF9900"/>
</linearGradient>
</defs>
</svg>
